<svg xmlns="http://www.w3.org/2000/svg" enable-background="new 0 0 24 24" viewBox="0 0 24 24" id="jest">
  <path d="M5.948,24c-1.238,0-2.411-0.37-3.4-1.069c-1.884-1.296-2.617-3.309-2.171-5.975c0.221-1.316,0.774-2.449,1.263-3.447l0.137-0.28c0.184-0.37,0.645-0.542,1.016-0.358c0.371,0.185,0.532,0.614,0.348,0.984l-0.021,0.042l-0.12,0.244c-0.456,0.933-0.958,1.96-1.143,3.062c-0.351,2.099,0.142,3.528,1.55,4.497C4.148,22.226,5.021,22.5,5.939,22.5c1.685,0,3.47-0.879,5.197-1.73c1.167-0.572,2.465-1.022,4.083-1.417c0.482-0.118,0.962-0.187,1.471-0.261l0.12-0.017c1.008-0.143,2.048-0.29,2.927-0.797c0.964-0.555,1.632-1.485,1.833-2.552c0.145-0.828,0.015-1.657-0.375-2.418c-0.12-0.235-0.108-0.515,0.032-0.739c0.236-0.376,0.355-0.797,0.355-1.25c0-0.015,0-0.03,0.001-0.045c-0.023-1.047-0.744-1.961-1.767-2.234c-0.208-0.055-0.392-0.199-0.488-0.39c-0.096-0.192-0.117-0.418-0.038-0.617L21.894,1.5H9.179l2.611,6.561c0.078,0.196,0.07,0.416-0.022,0.605c-0.092,0.189-0.26,0.332-0.462,0.392c-1.03,0.305-1.724,1.218-1.725,2.27c0,0.754,0.377,1.474,1.009,1.924c0.163,0.116,0.272,0.292,0.305,0.488c0.033,0.197-0.014,0.398-0.131,0.561c-0.357,0.497-0.746,0.939-1.186,1.35c-0.801,0.759-1.726,1.356-2.747,1.776c-0.231,0.096-0.549,0.088-0.757-0.051c-1.128-0.756-1.606-2.125-1.162-3.329c0.144-0.389,0.579-0.587,0.963-0.444c0.389,0.144,0.587,0.575,0.444,0.963c-0.166,0.449-0.046,0.942,0.296,1.313c0.721-0.341,1.363-0.781,1.931-1.319c0.208-0.195,0.401-0.395,0.582-0.606c-0.666-0.711-1.047-1.651-1.047-2.629c0.002-1.447,0.797-2.73,2.042-3.397L7.376,1.027C7.284,0.796,7.312,0.535,7.452,0.329C7.592,0.123,7.824,0,8.073,0H23c0.249,0,0.481,0.123,0.621,0.329c0.14,0.206,0.168,0.467,0.076,0.699l-2.734,6.861c1.291,0.662,2.119,1.972,2.122,3.43c0,0.021-0.001,0.042-0.002,0.062c-0.009,0.563-0.138,1.112-0.378,1.613c0.403,0.952,0.523,1.971,0.347,2.973c-0.288,1.534-1.22,2.837-2.564,3.611c-1.13,0.652-2.369,0.827-3.463,0.982l-0.118,0.017c-0.472,0.068-0.917,0.132-1.33,0.233c-1.511,0.369-2.711,0.784-3.777,1.307C9.918,23.042,7.974,24,5.948,24z"></path>
  <path d="M18.203 9.13c-.271 0-.533-.147-.667-.405l-1.999-3.856-2.002 3.824c-.192.368-.645.51-1.012.317-.367-.192-.509-.646-.317-1.012l2.67-5.1c.129-.248.386-.402.665-.402 0 0 .001 0 .001 0 .28 0 .536.157.665.405l2.661 5.135c.19.368.047.82-.321 1.011C18.437 9.103 18.319 9.13 18.203 9.13zM16.128 11.465h-1.093c-.414 0-.75-.336-.75-.75s.336-.75.75-.75h1.093c.414 0 .75.336.75.75S16.542 11.465 16.128 11.465z"></path>
  <path d="M11.961,14.994c-2.052,0-3.717-1.596-3.789-3.633c0-0.009,0-0.023,0-0.032v-0.008c0-1.715,1.166-3.208,2.835-3.632c0.126-0.03,0.183-0.042,0.25-0.054c0.025-0.004,0.051-0.007,0.077-0.009c0.02-0.003,0.04-0.006,0.059-0.009c0.06-0.015,0.107-0.019,0.168-0.019c0.063-0.006,0.119-0.012,0.18-0.012h0.471c0.039,0,0.146,0.01,0.185,0.016c0.07,0,0.139,0.014,0.205,0.035c0.002,0,0.005,0.001,0.008,0.001c0.059,0.005,0.116,0.017,0.172,0.035l0.073,0.015c0.036,0.005,0.072,0.012,0.104,0.021c0.065,0.018,0.125,0.037,0.182,0.059c0.015,0.004,0.029,0.008,0.043,0.013c0.045,0.014,0.11,0.034,0.183,0.068c0.022,0.008,0.044,0.018,0.066,0.029L13.46,7.89c0.025,0.006,0.05,0.015,0.074,0.023c0.074,0.029,0.146,0.063,0.213,0.104c0.007,0.003,0.015,0.007,0.021,0.011c0.017,0.008,0.106,0.059,0.122,0.069L13.89,8.099c0.018,0.008,0.036,0.017,0.053,0.026c0.056,0.029,0.106,0.062,0.156,0.096c0.07,0.036,0.108,0.069,0.164,0.125c0.09,0.059,0.242,0.194,0.39,0.328c0.727,0.757,1.097,1.676,1.097,2.644C15.678,13.396,14.014,14.994,11.961,14.994z M11.631,9.099c-0.013,0.002-0.026,0.003-0.039,0.005c-0.064,0.018-0.11,0.021-0.177,0.021c-1.043,0.272-1.744,1.168-1.744,2.196v0.014c0.043,1.199,1.048,2.16,2.289,2.16s2.246-0.962,2.29-2.191c0-0.565-0.223-1.117-0.625-1.539c-0.088-0.078-0.202-0.182-0.326-0.273c-0.006-0.004-0.012-0.009-0.017-0.013c-0.019-0.012-0.036-0.022-0.045-0.029l0,0c-0.032-0.017-0.065-0.035-0.098-0.055c-0.049-0.02-0.097-0.045-0.143-0.077c-0.026-0.009-0.051-0.02-0.076-0.032c-0.033-0.012-0.064-0.023-0.095-0.037c-0.027-0.009-0.054-0.02-0.08-0.033c-0.011-0.002-0.021-0.005-0.032-0.008c-0.041-0.01-0.08-0.024-0.119-0.041l0,0l-0.168-0.034c-0.02-0.004-0.04-0.009-0.059-0.014c-0.007-0.001-0.015-0.003-0.022-0.005c-0.022-0.003-0.086-0.014-0.12-0.021c-0.023-0.002-0.045-0.005-0.059-0.007l-0.424,0.002C11.731,9.092,11.686,9.098,11.631,9.099z M12.296,9.097c0.004,0,0.008,0.001,0.012,0.001c0,0,0,0,0,0C12.304,9.098,12.3,9.098,12.296,9.097z"></path>
  <path d="M19.206 14.994c-2.052 0-3.717-1.596-3.789-3.633 0-.009 0-.023 0-.032v-.008c0-1.715 1.166-3.208 2.835-3.632.128-.03.184-.042.25-.054.025-.004.051-.007.077-.009.02-.003.04-.006.059-.009.06-.015.107-.019.168-.019.064-.006.119-.012.181-.012h.47c.039 0 .146.01.184.016.07 0 .139.013.206.035.003 0 .006.001.01.001.058.006.114.018.17.035l.074.015c.036.005.072.012.104.021.065.018.125.037.182.059.015.004.029.008.044.013.045.014.11.034.182.067.023.009.045.019.067.029 0 0 .011.004.026.011.026.007.052.015.076.024.074.029.145.063.212.104C21 8.021 21.005 8.023 21.011 8.026c.018.009.108.06.125.07l-.001.002c.018.008.036.017.054.026.055.028.105.061.154.095.07.036.11.07.166.125.087.057.236.19.383.321.734.763 1.104 1.683 1.104 2.65C22.922 13.396 21.258 14.994 19.206 14.994zM18.876 9.099c-.013.002-.025.003-.039.005-.063.017-.111.021-.177.021-1.043.272-1.744 1.168-1.744 2.196v.014c.043 1.199 1.048 2.16 2.289 2.16 1.24 0 2.246-.963 2.29-2.192 0-.565-.223-1.116-.626-1.538-.093-.082-.204-.184-.325-.273-.006-.004-.011-.008-.017-.013-.019-.012-.035-.023-.045-.029l0 0c-.033-.017-.066-.035-.099-.055-.049-.02-.097-.045-.142-.077-.027-.009-.054-.021-.079-.033-.011-.004-.041-.016-.069-.028-.005-.001-.009-.003-.014-.004-.03-.01-.06-.022-.088-.036-.011-.002-.022-.005-.033-.008-.04-.01-.08-.024-.118-.041l0 0-.168-.034c-.02-.004-.039-.008-.058-.014-.008-.002-.016-.004-.024-.006-.022-.003-.087-.014-.12-.021-.023-.002-.044-.004-.058-.006l-.424.002C18.976 9.092 18.931 9.098 18.876 9.099zM19.541 9.097c.004 0 .008.001.012.001 0 0 0 0 0 0C19.549 9.098 19.545 9.098 19.541 9.097zM4.681 14.904c-1.793 0-3.251-1.458-3.251-3.249 0-1.793 1.458-3.251 3.25-3.251s3.25 1.458 3.25 3.25C7.93 13.446 6.472 14.904 4.681 14.904zM4.68 9.904c-.965 0-1.75.786-1.75 1.751 0 .964.786 1.749 1.751 1.749.964 0 1.749-.785 1.749-1.75C6.43 10.689 5.645 9.904 4.68 9.904z"></path>
</svg>
